<?xml version="1.0" encoding="utf-8"?>
<!-- Generator: Adobe Illustrator 19.0.0, SVG Export Plug-In . SVG Version: 6.00 Build 0)  -->
<svg version="1.1" id="Layer_1" xmlns="http://www.w3.org/2000/svg" xmlns:xlink="http://www.w3.org/1999/xlink" x="0px" y="0px"
	 viewBox="0 0 200 200" style="enable-background:new 0 0 200 200;" xml:space="preserve">
<style type="text/css">
	.st0{fill:#696969;}
</style>
<g id="XMLID_2_">
	<path id="XMLID_15_" class="st0" d="M124.8,90.3c-1.8,0-3.7-0.7-5.1-2.1L48.3,16.8c-2.8-2.8-2.8-7.4,0-10.2c2.8-2.8,7.4-2.8,10.2,0
		L129.8,78c2.8,2.8,2.8,7.4,0,10.2C128.4,89.6,126.6,90.3,124.8,90.3z"/>
</g>
<g id="XMLID_3_">
	<path id="XMLID_14_" class="st0" d="M169.2,92.3c-1.8,0-3.7-0.7-5.1-2.1l-56-56c-2.8-2.8-2.8-7.4,0-10.2c2.8-2.8,7.4-2.8,10.2,0
		l56,56c2.8,2.8,2.8,7.4,0,10.2C172.9,91.6,171.1,92.3,169.2,92.3z"/>
</g>
<g id="XMLID_5_">
	<path id="XMLID_13_" class="st0" d="M162.9,128.9c-1.8,0-3.7-0.7-5.1-2.1l-19.1-19.1c-2.8-2.8-2.8-7.4,0-10.2
		c2.8-2.8,7.4-2.8,10.2,0l19.1,19.1c2.8,2.8,2.8,7.4,0,10.2C166.5,128.2,164.7,128.9,162.9,128.9z"/>
</g>
<g id="XMLID_4_">
	<path id="XMLID_12_" class="st0" d="M151,161.9c-1.8,0-3.7-0.7-5.1-2.1L38.6,52.5c-2.8-2.8-2.8-7.4,0-10.2c2.8-2.8,7.4-2.8,10.2,0
		L156,149.6c2.8,2.8,2.8,7.4,0,10.2C154.6,161.2,152.8,161.9,151,161.9z"/>
</g>
<g id="XMLID_9_">
	<path id="XMLID_11_" class="st0" d="M81.4,180.2c-1.8,0-3.7-0.7-5.1-2.1l-56-56c-2.8-2.8-2.8-7.4,0-10.2c2.8-2.8,7.4-2.8,10.2,0
		l56,56c2.8,2.8,2.8,7.4,0,10.2C85,179.5,83.2,180.2,81.4,180.2z"/>
</g>
<g id="XMLID_8_">
	<path id="XMLID_10_" class="st0" d="M50.9,106.6c-1.8,0-3.7-0.7-5.1-2.1L26.7,85.4c-2.8-2.8-2.8-7.4,0-10.2c2.8-2.8,7.4-2.8,10.2,0
		L56,94.3c2.8,2.8,2.8,7.4,0,10.2C54.6,105.9,52.7,106.6,50.9,106.6z"/>
</g>
<g id="XMLID_7_">
	<path id="XMLID_6_" class="st0" d="M141.1,196.8c-1.8,0-3.7-0.7-5.1-2.1l-71.4-71.4c-2.8-2.8-2.8-7.4,0-10.2
		c2.8-2.8,7.4-2.8,10.2,0l71.4,71.4c2.8,2.8,2.8,7.4,0,10.2C144.7,196.1,142.9,196.8,141.1,196.8z"/>
</g>
</svg>
